<svg fill="none" height="24" viewBox="0 0 24 24" width="24" xmlns="http://www.w3.org/2000/svg"><path d="m16 16.9999 5-5m0 0-5-4.99996m5 4.99996h-12m3 5c0 .2956 0 .4434-.011.5714-.1142 1.3306-1.0941 2.4255-2.40397 2.6859-.126.0251-.27301.0414-.56668.074l-1.02141.1135c-1.53446.1705-2.30173.2558-2.91128.0607-.81273-.2601-1.47624-.8539-1.82448-1.633-.26118-.5843-.26118-1.3562-.26118-2.9002v-7.94456c0-1.54394 0-2.3159.26118-2.90018.34824-.77904 1.01175-1.37292 1.82448-1.63299.60955-.19506 1.3768-.10981 2.91128.06069l1.02141.11349c.29377.03264.44066.04896.56668.07402 1.30987.26043 2.28977 1.35531 2.40397 2.68588.011.12802.011.27581.011.57139" stroke="#000" stroke-linecap="round" stroke-linejoin="round" stroke-width="2"/></svg>