<svg xmlns="http://www.w3.org/2000/svg" width="48" height="48" viewBox="0 0 24 24"><path fill="white" d="M20.689 8.87L22 15.129h-1.502c-.06-.262-.107-.536-.167-.798c-.06-.262 0-.131-.155-.131h-1.823a.143.143 0 0 0-.167.13c-.084.24-.167.478-.262.704c-.096.226-.084.107-.12.107h-1.608v-.143c.794-1.883 1.589-3.77 2.383-5.661a.691.691 0 0 1 .62-.453c.524-.024 1.001-.012 1.49-.012m-1.12 1.753l-.847 2.277h1.335zM6.112 13.126v-.143c.477-1.323.965-2.646 1.43-3.969c0-.107.096-.155.215-.155h1.585v.155l-2.467 5.96a.203.203 0 0 1-.227.154H5.266c-.12 0-.167 0-.203-.155c-.44-1.716-.894-3.432-1.335-5.16a.346.346 0 0 0-.155-.215A7.08 7.08 0 0 0 2.12 8.99s-.084-.06-.12-.083a.334.334 0 0 1 .155 0h2.384a.715.715 0 0 1 .822.68l.68 3.491a.299.299 0 0 0 0 .084zm5.554 1.764l.239-1.395l.167.096a2.991 2.991 0 0 0 1.978.274a.62.62 0 0 0 .548-.465a.584.584 0 0 0-.357-.596c-.239-.155-.5-.274-.727-.429a4.067 4.067 0 0 1-.81-.596a1.645 1.645 0 0 1 0-2.11a2.625 2.625 0 0 1 1.346-.786a4.112 4.112 0 0 1 2.384.119h.06l-.227 1.287a6.779 6.779 0 0 0-.918-.214a6.062 6.062 0 0 0-.93 0a.596.596 0 0 0-.297.155a.359.359 0 0 0 0 .548a2.8 2.8 0 0 0 .464.346c.31.19.632.345.93.548a1.715 1.715 0 0 1 .048 2.896a3.134 3.134 0 0 1-1.645.644a4.565 4.565 0 0 1-2.253-.322m-2.646.238l1.025-6.257h1.633l-1.025 6.257z"/></svg>